<svg xmlns="http://www.w3.org/2000/svg" xmlns:xlink="http://www.w3.org/1999/xlink" width="60" zoomAndPan="magnify" viewBox="0 0 45 44.999999" height="60" preserveAspectRatio="xMidYMid meet" version="1.0"><defs><clipPath id="94fd1bb1ad"><path d="M 1.949219 3.226562 L 40.199219 3.226562 L 40.199219 41.476562 L 1.949219 41.476562 Z M 1.949219 3.226562 " clip-rule="nonzero"/></clipPath></defs><rect x="-4.5" width="54" fill="#ffffff" y="-4.5" height="53.999999" fill-opacity="1"/><rect x="-4.5" width="54" fill="#ffffff" y="-4.5" height="53.999999" fill-opacity="1"/><path fill="#8c52ff" d="M 18.015625 26.835938 L 16.351562 26.835938 C 15.582031 26.835938 14.933594 26.1875 14.933594 25.417969 L 14.933594 22.457031 C 14.933594 21.683594 15.582031 21.035156 16.351562 21.035156 L 18.015625 21.035156 C 18.789062 21.035156 19.4375 21.683594 19.4375 22.457031 L 19.4375 25.417969 C 19.4375 26.1875 18.828125 26.835938 18.015625 26.835938 Z M 18.015625 26.835938 " fill-opacity="1" fill-rule="nonzero"/><path fill="#8c52ff" d="M 25.117188 26.835938 L 23.453125 26.835938 C 22.683594 26.835938 22.03125 26.1875 22.03125 25.417969 L 22.03125 22.457031 C 22.03125 21.683594 22.683594 21.035156 23.453125 21.035156 L 25.117188 21.035156 C 25.886719 21.035156 26.535156 21.683594 26.535156 22.457031 L 26.535156 25.417969 C 26.535156 26.1875 25.886719 26.835938 25.117188 26.835938 Z M 25.117188 26.835938 " fill-opacity="1" fill-rule="nonzero"/><g clip-path="url(#94fd1bb1ad)"><path fill="#8c52ff" d="M 21.222656 3.226562 C 10.589844 3.226562 1.949219 11.867188 1.949219 22.496094 C 1.949219 33.125 10.589844 41.769531 21.222656 41.769531 L 37.449219 41.769531 C 39.152344 41.769531 40.492188 40.386719 40.492188 38.726562 L 40.492188 22.496094 C 40.492188 11.867188 31.851562 3.226562 21.222656 3.226562 Z M 34.730469 25.214844 C 34.730469 26.472656 33.71875 27.445312 32.5 27.445312 L 31.484375 27.445312 C 31.40625 27.445312 31.285156 27.445312 31.203125 27.40625 C 29.578125 30.855469 25.726562 33.246094 21.222656 33.246094 C 16.71875 33.246094 12.863281 30.855469 11.28125 27.445312 L 10.265625 27.445312 C 9.007812 27.445312 8.035156 26.433594 8.035156 25.214844 L 8.035156 22.660156 C 8.035156 21.402344 9.050781 20.425781 10.265625 20.425781 L 11.242188 20.425781 C 12.621094 17.507812 15.703125 15.316406 19.4375 14.789062 L 19.4375 12.355469 C 18.664062 11.90625 18.136719 11.097656 18.136719 10.121094 C 18.136719 8.703125 19.273438 7.566406 20.695312 7.566406 C 22.113281 7.566406 23.25 8.703125 23.25 10.121094 C 23.25 11.054688 22.722656 11.90625 21.953125 12.355469 L 21.953125 14.667969 C 26.128906 14.949219 29.621094 17.222656 31.121094 20.425781 C 31.203125 20.425781 31.324219 20.386719 31.40625 20.386719 L 32.417969 20.386719 C 33.675781 20.386719 34.652344 21.402344 34.652344 22.617188 L 34.652344 25.214844 Z M 34.730469 25.214844 " fill-opacity="1" fill-rule="nonzero"/></g></svg>